{
    "asset" : {
        "generator" : "Khronos glTF Blender I/O v1.8.19",
        "version" : "2.0"
    },
    "scene" : 0,
    "scenes" : [
        {
            "name" : "Scene",
            "nodes" : [
                0
            ]
        }
    ],
    "nodes" : [
        {
            "mesh" : 0,
            "name" : "Coin",
            "rotation" : [
                0.7071068286895752,
                0,
                0,
                0.7071068286895752
            ],
            "scale" : [
                1,
                0.11678653955459595,
                1
            ]
        }
    ],
    "materials" : [
        {
            "doubleSided" : true,
            "name" : "Coin",
            "pbrMetallicRoughness" : {
                "baseColorFactor" : [
                    0.8000000715255737,
                    0.3394063115119934,
                    0,
                    1
                ],
                "metallicFactor" : 0.8963732719421387,
                "roughnessFactor" : 0.22538858652114868
            }
        }
    ],
    "meshes" : [
        {
            "name" : "Cylinder",
            "primitives" : [
                {
                    "attributes" : {
                        "POSITION" : 0,
                        "NORMAL" : 1,
                        "TEXCOORD_0" : 2
                    },
                    "indices" : 3,
                    "material" : 0
                }
            ]
        }
    ],
    "accessors" : [
        {
            "bufferView" : 0,
            "componentType" : 5126,
            "count" : 13312,
            "max" : [
                0.9935950636863708,
                0.9658738970756531,
                0.9935951828956604
            ],
            "min" : [
                -0.9935950636863708,
                -0.9658738970756531,
                -0.9935951232910156
            ],
            "type" : "VEC3"
        },
        {
            "bufferView" : 1,
            "componentType" : 5126,
            "count" : 13312,
            "type" : "VEC3"
        },
        {
            "bufferView" : 2,
            "componentType" : 5126,
            "count" : 13312,
            "type" : "VEC2"
        },
        {
            "bufferView" : 3,
            "componentType" : 5123,
            "count" : 19968,
            "type" : "SCALAR"
        }
    ],
    "bufferViews" : [
        {
            "buffer" : 0,
            "byteLength" : 159744,
            "byteOffset" : 0
        },
        {
            "buffer" : 0,
            "byteLength" : 159744,
            "byteOffset" : 159744
        },
        {
            "buffer" : 0,
            "byteLength" : 106496,
            "byteOffset" : 319488
        },
        {
            "buffer" : 0,
            "byteLength" : 39936,
            "byteOffset" : 425984
        }
    ],
    "buffers" : [
        {
            "byteLength" : 465920,
            "uri" : "data:application/octet-stream;base64,"
        }
    ]
}
